<svg width="164" height="20" viewBox="0 0 164 20" fill="none" xmlns="http://www.w3.org/2000/svg">
<path d="M5.21815 0C5.69142 0 6.10554 0.0467346 6.46063 0.137802C6.81558 0.228869 6.99306 0.474511 6.99306 0.873528C6.99306 1.04008 6.94576 1.25697 6.85103 1.52298C6.75643 1.789 6.64397 2.06819 6.51379 2.35936C6.38361 2.65053 6.25344 2.93811 6.12339 3.22089C5.99322 3.50368 5.89262 3.73615 5.8216 3.91948C5.37191 5.06741 4.98737 6.22491 4.66799 7.38961C4.34848 8.55431 4.10585 9.73577 3.94023 10.934L14.3411 1.52298C14.625 1.27375 14.9683 1.14913 15.3705 1.14913C15.5598 1.14913 15.7492 1.18148 15.9385 1.24858C16.1279 1.31568 16.2225 1.42352 16.2225 1.5733C16.2225 1.73986 16.0627 2.01785 15.7433 2.40968C15.4238 2.80031 15.0156 3.25445 14.5186 3.7697C14.0216 4.28615 13.4654 4.82655 12.8502 5.39212C12.2349 5.95889 11.6492 6.49572 11.093 7.00258C10.5369 7.51063 10.034 7.96357 9.58435 8.36259C9.13479 8.7628 8.81528 9.04558 8.62594 9.21214C8.05793 9.72739 7.48406 10.2438 6.90432 10.7591C6.32445 11.2755 5.76244 11.8004 5.21815 12.3324C6.37775 12.9483 7.63796 13.4851 8.99862 13.9428C10.3594 14.4006 11.7261 14.7792 13.0986 15.0788C13.2644 15.1111 13.4241 15.1447 13.5779 15.1782C13.7318 15.2118 13.9032 15.2369 14.0926 15.2525C14.1873 15.2693 14.3292 15.2777 14.5186 15.2777C14.7316 15.2777 14.9445 15.2909 15.1576 15.316C15.3705 15.34 15.554 15.3819 15.7077 15.4406C15.8616 15.4982 15.9385 15.5772 15.9385 15.6779C15.9385 16.0601 15.7669 16.3681 15.4238 16.6005C15.0806 16.8342 14.6369 16.9504 14.0926 16.9504C13.6193 16.9504 12.8738 16.8258 11.8563 16.5766C10.8387 16.3262 9.76783 16.0314 8.64366 15.6899C7.51964 15.3484 6.46649 15.0033 5.48437 14.6534C4.50224 14.3047 3.81005 14.0219 3.40779 13.805C3.33677 14.0051 3.2599 14.2795 3.17702 14.6294C3.09414 14.9781 3.02912 15.3448 2.98182 15.727C2.93438 16.1105 2.89308 16.4807 2.8575 16.8378C2.82206 17.1961 2.80434 17.4753 2.80434 17.6742C2.80434 17.8911 2.81606 18.0948 2.83978 18.2865C2.8635 18.4782 2.85164 18.6519 2.80434 18.8101C2.7569 18.9683 2.65644 19.1145 2.50255 19.2475C2.34879 19.3805 2.09429 19.5051 1.73934 19.6213C1.4554 19.7052 1.18318 19.746 0.922966 19.746C0.544292 19.746 0.295797 19.6513 0.177478 19.4596C0.0591595 19.2678 0 19.0641 0 18.8473C0 16.1021 0.224778 13.3928 0.67447 10.7219C1.12403 8.05103 1.85766 5.39213 2.87523 2.74639C2.92266 2.59661 2.99954 2.38812 3.106 2.12211C3.21246 1.8561 3.33078 1.58529 3.46096 1.31089C3.59113 1.03649 3.73903 0.782467 3.90478 0.550007C4.0704 0.316348 4.24788 0.166567 4.43722 0.100663C4.55554 0.050337 4.68572 0.0215667 4.82762 0.013179C4.96965 0.00479124 5.09983 0 5.21815 0Z" fill="#A8A9BA"/>
<path d="M20.7659 18.1487C21.7363 18.1487 22.671 18.0325 23.5703 17.7988C24.4696 17.5663 25.3097 17.2548 26.0907 16.863C26.8716 16.4723 27.5875 16.0182 28.2382 15.5029C28.889 14.9865 29.4393 14.4461 29.889 13.8805C30.0073 13.7475 30.09 13.6301 30.1373 13.5306C30.1848 13.4312 30.2084 13.2982 30.2084 13.1316C30.2084 13.0477 30.1552 12.9818 30.0486 12.9315C29.9421 12.8812 29.8298 12.856 29.7114 12.856C29.4511 12.856 29.2381 12.9315 29.0725 13.0813C28.9069 13.2311 28.7648 13.3725 28.6465 13.5055C28.2915 13.9213 27.8774 14.3382 27.404 14.754C26.9307 15.1698 26.4102 15.5401 25.8422 15.8648C25.2741 16.1895 24.6588 16.4556 23.9962 16.6641C23.3336 16.8714 22.6237 16.9756 21.8664 16.9756C21.0381 16.9756 20.4465 16.8138 20.0916 16.4891C19.7365 16.1644 19.559 15.7186 19.559 15.1531C19.559 14.8367 19.6182 14.488 19.7365 14.1046C20.2808 13.9716 20.8725 13.7224 21.5114 13.3557C22.1504 12.9902 22.7479 12.5696 23.304 12.0951C23.8602 11.6206 24.3217 11.1305 24.6885 10.6225C25.0552 10.1144 25.2387 9.65311 25.2387 9.23731C25.2387 8.80475 25.0671 8.44646 24.724 8.16367C24.3809 7.88089 23.8898 7.7395 23.2509 7.7395C22.3042 7.7395 21.4345 7.99712 20.6417 8.51237C19.8489 9.02881 19.1686 9.65669 18.6006 10.3972C18.0326 11.1389 17.5949 11.9082 17.2872 12.7062C16.9796 13.5055 16.8257 14.1885 16.8257 14.754C16.8257 15.2034 16.8967 15.6324 17.0387 16.0398C17.1806 16.4472 17.4114 16.8055 17.7309 17.1134C18.0504 17.4214 18.4586 17.6706 18.9556 17.8623C19.4525 18.0528 20.056 18.1487 20.7659 18.1487ZM23.0734 8.91258C23.31 8.91258 23.4698 8.97489 23.5525 9.09951C23.6354 9.22413 23.6768 9.35354 23.6768 9.48654C23.6768 9.81966 23.5467 10.1648 23.2863 10.523C23.026 10.8801 22.7066 11.23 22.3279 11.5715C21.9492 11.9118 21.5351 12.2197 21.0854 12.4941C20.6359 12.7697 20.2216 12.9902 19.8431 13.1556C19.8904 12.9399 20.0206 12.5948 20.2335 12.1203C20.4465 11.6458 20.7068 11.1713 21.0144 10.6968C21.3221 10.2235 21.6534 9.80647 22.0084 9.44939C22.3633 9.09111 22.7183 8.91258 23.0734 8.91258Z" fill="#A8A9BA"/>
<path d="M27.9014 9.81138C27.9014 9.91084 27.9605 10.0067 28.0788 10.0978C28.1972 10.19 28.3038 10.2691 28.3984 10.335C28.8243 10.6849 29.2503 11.163 29.6763 11.7705C30.1023 12.378 30.5045 13.0227 30.8832 13.7057C31.2619 14.3875 31.5872 15.0621 31.8594 15.7271C32.1315 16.3934 32.315 16.9506 32.4096 17.3999C32.4806 17.6659 32.5575 17.8864 32.6404 18.0613C32.7231 18.2363 33.0012 18.3237 33.4746 18.3237C33.9006 18.3237 34.1668 18.2411 34.2733 18.0745C34.3797 17.908 34.4685 17.7079 34.5395 17.4754C34.5868 17.3088 34.7584 17.0212 35.0542 16.6138C35.35 16.2064 35.7109 15.7319 36.1369 15.1903C36.5629 14.6499 37.0243 14.076 37.5213 13.4684C38.0183 12.8609 38.5034 12.287 38.9767 11.7454C39.45 11.2049 39.8759 10.7221 40.2546 10.2979C40.6333 9.8737 40.9172 9.57773 41.1066 9.41117C41.1539 9.36204 41.2072 9.31172 41.2663 9.26139C41.3255 9.21226 41.3551 9.14516 41.3551 9.06248C41.3551 8.89592 41.2486 8.75813 41.0355 8.65029C40.8226 8.54244 40.6096 8.48853 40.3966 8.48853C40.1836 8.48853 40.0061 8.55083 39.8642 8.67544C39.7222 8.80006 39.592 8.91271 39.4737 9.01216C38.4797 10.0103 37.5746 11.0432 36.7581 12.1072C35.9417 13.1725 35.1193 14.2293 34.291 15.2778C34.1491 14.8117 33.9479 14.3048 33.6875 13.7548C33.4272 13.206 33.1255 12.6572 32.7824 12.1072C32.4392 11.5584 32.0665 11.0348 31.6641 10.5351C31.2619 10.0355 30.824 9.61128 30.3508 9.26139C30.2087 9.14516 30.055 9.04571 29.8893 8.96183C29.7236 8.87915 29.5225 8.83721 29.2857 8.83721C28.9782 8.83721 28.6706 8.94626 28.3629 9.16194C28.0553 9.37882 27.9014 9.5945 27.9014 9.81138Z" fill="#A8A9BA"/>
<path d="M45.5439 14.8535C45.5439 14.0879 45.6505 13.3473 45.8634 12.632C45.9344 12.4487 46.029 12.2366 46.1473 11.9957C46.2656 11.7537 46.384 11.5128 46.5024 11.272C46.6207 11.0299 46.7212 10.7975 46.8041 10.5722C46.8869 10.3481 46.9284 10.1528 46.9284 9.98626C46.9284 9.61959 46.6562 9.43625 46.1119 9.43625C45.3545 9.43625 44.7925 9.59082 44.4257 9.89877C44.0589 10.2067 43.769 10.5854 43.556 11.0347C43.3667 11.4673 43.1951 11.9706 43.0413 12.5445C42.8874 13.1185 42.8105 13.6385 42.8105 14.1046C42.8105 14.4713 42.8461 14.8991 42.917 15.3904C42.988 15.8816 43.1419 16.3478 43.3786 16.7887C43.6152 17.2297 43.9406 17.6035 44.3547 17.9115C44.7689 18.2194 45.3309 18.374 46.0409 18.374C46.6799 18.374 47.3306 18.2278 47.9933 17.9366C48.6559 17.6455 49.3008 17.292 49.9279 16.8762C50.555 16.4592 51.129 16.023 51.6495 15.5653C52.1701 15.1076 52.5961 14.7121 52.9275 14.379C52.9985 14.3131 53.0872 14.2257 53.1937 14.1178C53.3001 14.0088 53.4067 13.8925 53.5132 13.7679C53.6197 13.6433 53.7084 13.5223 53.7794 13.4061C53.8504 13.2898 53.8859 13.1892 53.8859 13.1065C53.8859 12.9735 53.8681 12.8489 53.8327 12.7314C53.7971 12.6152 53.6611 12.5565 53.4245 12.5565C53.1878 12.5565 52.9925 12.632 52.8387 12.7818C52.6848 12.9315 52.5488 13.0645 52.4305 13.1808C52.1938 13.448 51.8566 13.8051 51.4188 14.2544C50.9809 14.7038 50.4958 15.1411 49.9634 15.5653C49.4309 15.9895 48.8866 16.3561 48.3305 16.6641C47.7743 16.972 47.2596 17.1254 46.7863 17.1254C46.4787 17.1254 46.2421 17.0343 46.0764 16.851C45.9107 16.6677 45.7865 16.4508 45.7036 16.2016C45.6209 15.9523 45.5734 15.7019 45.5617 15.4527C45.5499 15.2034 45.5439 15.0033 45.5439 14.8535ZM46.9638 5.61743C46.4906 5.61743 46.0942 5.75883 45.7746 6.04162C45.4551 6.3244 45.2954 6.62397 45.2954 6.9403C45.2954 7.18954 45.402 7.41002 45.6149 7.60174C45.8279 7.79346 46.1237 7.88932 46.5024 7.88932C46.9757 7.88932 47.3779 7.75152 47.7093 7.47712C48.0406 7.20272 48.2063 6.89836 48.2063 6.56525C48.2063 6.31602 48.0938 6.09553 47.8691 5.90381C47.6442 5.71329 47.3425 5.61743 46.9638 5.61743Z" fill="#A8A9BA"/>
<path d="M52.182 18.7227C52.5134 18.7227 52.8033 18.6401 53.0517 18.4735C53.3002 18.3069 53.4955 18.1236 53.6374 17.9247C54.0398 17.292 54.4539 16.6725 54.8799 16.065C55.3059 15.4575 55.7791 14.862 56.2998 14.2796C56.7258 13.7967 57.1991 13.2899 57.7197 12.7567C58.2404 12.2246 58.7965 11.7585 59.3881 11.3583C59.4827 11.2924 59.6129 11.2085 59.7785 11.1091C59.9443 11.0096 60.0862 10.9593 60.2045 10.9593C60.3465 10.9593 60.4353 11.0264 60.4708 11.1594C60.5063 11.2924 60.524 11.3918 60.524 11.459C60.524 11.9418 60.5004 12.4152 60.453 12.8813C60.4057 13.3474 60.382 13.8219 60.382 14.3048C60.382 14.6211 60.3998 14.9698 60.4353 15.3533C60.4709 15.7355 60.5773 16.0938 60.7548 16.4269C60.9323 16.7588 61.1926 17.038 61.5357 17.2633C61.8788 17.4873 62.3581 17.6 62.9734 17.6C63.636 17.6 64.3163 17.4502 65.0145 17.1506C65.7126 16.8511 66.3752 16.4844 67.0024 16.0518C67.6295 15.6193 68.1857 15.1579 68.6708 14.6667C69.1559 14.1754 69.5286 13.7392 69.789 13.3558C69.8363 13.2899 69.8896 13.206 69.9487 13.1065C70.0079 13.0059 70.0375 12.9232 70.0375 12.8561C70.0375 12.7399 69.9842 12.6284 69.8777 12.5194C69.7713 12.4116 69.6234 12.3576 69.434 12.3576C69.221 12.3576 69.0435 12.4319 68.9015 12.5817C68.7596 12.7315 68.6412 12.8645 68.5465 12.9819C68.3572 13.2479 68.0851 13.5727 67.7301 13.9549C67.3752 14.3384 66.9728 14.7086 66.5232 15.0657C66.0735 15.424 65.6061 15.7319 65.121 15.9895C64.6359 16.2472 64.1566 16.3766 63.6833 16.3766C63.3994 16.3766 63.1805 16.3262 63.0267 16.2268C62.8728 16.1273 62.7603 16.0015 62.6895 15.8517C62.6184 15.702 62.577 15.5402 62.5651 15.3652C62.5533 15.1903 62.5474 15.0285 62.5474 14.8788C62.5474 14.2964 62.571 13.7141 62.6184 13.1317C62.6657 12.5494 62.6895 11.9658 62.6895 11.3835C62.6895 11.2013 62.6776 10.9761 62.6539 10.71C62.6303 10.444 62.5651 10.1768 62.4587 9.91082C62.3522 9.64481 62.1925 9.41954 61.9794 9.23741C61.7665 9.05407 61.4824 8.9618 61.1275 8.9618C60.6779 8.9618 60.1513 9.14513 59.5479 9.5118C58.9444 9.87726 58.3468 10.3026 57.7552 10.7843C57.1635 11.2672 56.6134 11.7585 56.1045 12.257C55.5958 12.7567 55.2111 13.1401 54.9509 13.4061C55.0455 12.9232 55.1638 12.4403 55.3059 11.9574C55.4479 11.4757 55.649 11.0012 55.9093 10.5351C56.1222 10.1361 56.3294 9.69872 56.5305 9.22421C56.7317 8.74971 56.8323 8.29677 56.8323 7.8642C56.8323 7.59819 56.7554 7.3897 56.6015 7.23992C56.4477 7.09014 56.1697 7.01465 55.7673 7.01465C55.3177 7.01465 54.8858 7.14047 54.4716 7.3897C54.0575 7.63894 53.8032 7.91334 53.7084 8.2129C53.5901 8.59634 53.4837 8.98697 53.3889 9.38719C53.2943 9.7862 53.1879 10.1768 53.0695 10.5603C52.7144 11.7585 52.3536 13.0059 51.9868 14.3048C51.62 15.6025 51.4365 16.8679 51.4365 18.0985C51.4365 18.265 51.4957 18.4112 51.6141 18.5358C51.7325 18.6604 51.9217 18.7227 52.182 18.7227Z" fill="#A8A9BA"/>
<path d="M89.7545 3.67021C89.7545 3.85354 89.8431 4.00332 90.0203 4.11955C90.1975 4.23578 90.4169 4.29451 90.6773 4.29451C90.9131 4.29451 91.1857 4.25616 91.4938 4.18187C91.8005 4.10638 92.1031 4.01171 92.3989 3.89428C92.6947 3.77805 92.9782 3.65344 93.2509 3.52043C93.5221 3.38742 93.7416 3.26281 93.9079 3.14538C94.2391 2.92969 94.4995 2.67567 94.6876 2.38449C94.8771 2.09332 94.9725 1.78896 94.9725 1.47263C94.9725 1.15749 94.8362 0.903461 94.5635 0.711741C94.2923 0.520021 93.9542 0.37503 93.5521 0.274377C93.15 0.174922 92.7302 0.109015 92.2926 0.0754636C91.8537 0.0419126 91.4693 0.0251465 91.138 0.0251465C90.4524 0.0251465 89.659 0.0503103 88.7607 0.100637C87.8608 0.149765 86.9497 0.237229 86.0267 0.361847C85.1038 0.487663 84.1987 0.66141 83.3111 0.886681C82.4238 1.11075 81.631 1.39834 80.9328 1.74823C80.2347 2.09692 79.6726 2.51749 79.2466 3.00878C78.8206 3.50006 78.6077 4.06923 78.6077 4.71868C78.6077 5.46758 78.8739 6.16257 79.4064 6.80244C79.9389 7.4435 80.5955 8.04262 81.3765 8.59981C82.1575 9.15819 83.0153 9.68183 83.9502 10.1731C84.8849 10.6644 85.7428 11.1425 86.5237 11.6086C87.3047 12.0747 87.9614 12.5325 88.4936 12.9818C89.0266 13.4312 89.2924 13.8889 89.2924 14.3538C89.2924 14.7708 89.1029 15.1327 88.7253 15.4406C88.3464 15.7486 87.8608 16.0146 87.2692 16.2386C86.6775 16.4639 86.003 16.6472 85.2458 16.7886C84.4885 16.93 83.7431 17.0463 83.0095 17.1373C82.2759 17.2296 81.5777 17.2919 80.9151 17.3255C80.2524 17.3578 79.7082 17.3746 79.2822 17.3746C78.6906 17.3746 78.1107 17.3207 77.5427 17.2128C76.9748 17.105 76.395 17.0499 75.8034 17.0499C75.4721 17.0499 75.1999 17.0714 74.9869 17.1134C74.7739 17.1541 74.6675 17.3171 74.6675 17.5999C74.6675 17.7664 74.7798 17.8946 75.0047 17.9869C75.2295 18.078 75.4898 18.1451 75.7856 18.1858C76.0814 18.2277 76.3772 18.2565 76.673 18.2733C76.9688 18.29 77.1877 18.3068 77.3298 18.3236C77.9687 18.3739 78.5958 18.3979 79.2112 18.3979C79.8975 18.3979 80.6784 18.3739 81.5541 18.3236C82.4296 18.2733 83.3407 18.1858 84.2874 18.0612C85.234 17.9366 86.1569 17.7664 87.0562 17.5495C87.9554 17.3339 88.7608 17.0583 89.4696 16.7263C90.1798 16.3932 90.7536 15.9858 91.1912 15.5029C91.6301 15.02 91.8482 14.4628 91.8482 13.8302C91.8482 13.1807 91.6056 12.5696 91.1203 11.9956C90.635 11.4217 90.0257 10.8681 89.2924 10.3349C88.559 9.80285 87.7602 9.2948 86.8964 8.8119C86.0326 8.33021 85.234 7.84732 84.5003 7.36442C83.7667 6.88153 83.1574 6.39982 82.6722 5.91693C82.1871 5.43403 81.9445 4.93436 81.9445 4.41912C81.9445 3.953 82.1515 3.52403 82.5657 3.1334C82.9799 2.74277 83.4946 2.39647 84.1099 2.09691C84.7251 1.79735 85.376 1.5529 86.0622 1.36118C86.7485 1.16946 87.3757 1.04005 87.9437 0.97415C88.3464 0.923824 88.7485 0.890277 89.1506 0.873502C89.5527 0.857924 89.9548 0.849542 90.357 0.849542C90.4756 0.849542 90.6296 0.853134 90.8191 0.861522C91.0085 0.86991 91.198 0.886676 91.3875 0.911839C91.5756 0.937002 91.7419 0.982538 91.8837 1.04844C92.0254 1.11554 92.0963 1.215 92.0963 1.348C92.0963 1.54811 91.9722 1.73984 91.7242 1.92197C91.4761 2.1053 91.2089 2.29342 90.9254 2.48394C90.6419 2.67566 90.3747 2.87098 90.1266 3.07109C89.8785 3.27 89.7545 3.4701 89.7545 3.67021Z" fill="#A8A9BA"/>
<path d="M97.9181 14.8535C97.9181 14.0879 98.0244 13.3473 98.2384 12.632C98.3093 12.4487 98.4034 12.2366 98.522 11.9957C98.6406 11.7537 98.7591 11.5128 98.8764 11.272C98.995 11.0299 99.0958 10.7975 99.179 10.5722C99.2621 10.3481 99.303 10.1528 99.303 9.98626C99.303 9.61959 99.0304 9.43625 98.4865 9.43625C97.7286 9.43625 97.167 9.59082 96.8003 9.89877C96.4337 10.2067 96.1433 10.5854 95.9307 11.0347C95.7412 11.4673 95.5695 11.9706 95.4154 12.5445C95.2614 13.1185 95.1851 13.6385 95.1851 14.1046C95.1851 14.4713 95.2205 14.8991 95.2914 15.3904C95.3623 15.8816 95.5163 16.3478 95.7535 16.7887C95.9893 17.2297 96.3151 17.6035 96.7295 17.9115C97.1439 18.2194 97.7055 18.374 98.4156 18.374C99.0549 18.374 99.7052 18.2278 100.368 17.9366C101.03 17.6455 101.675 17.292 102.302 16.8762C102.929 16.4592 103.503 16.023 104.024 15.5653C104.544 15.1076 104.971 14.7121 105.302 14.379C105.373 14.3131 105.462 14.2257 105.568 14.1178C105.674 14.0088 105.782 13.8925 105.888 13.7679C105.995 13.6433 106.083 13.5223 106.154 13.4061C106.225 13.2898 106.26 13.1892 106.26 13.1065C106.26 12.9735 106.243 12.8489 106.207 12.7314C106.172 12.6152 106.035 12.5565 105.8 12.5565C105.562 12.5565 105.368 12.632 105.214 12.7818C105.059 12.9315 104.923 13.0645 104.805 13.1808C104.569 13.448 104.231 13.8051 103.793 14.2544C103.356 14.7038 102.87 15.1411 102.339 15.5653C101.806 15.9895 101.26 16.3561 100.706 16.6641C100.15 16.972 99.6343 17.1254 99.1613 17.1254C98.8532 17.1254 98.616 17.0343 98.4511 16.851C98.2848 16.6677 98.1607 16.4508 98.079 16.2016C97.9958 15.9523 97.9481 15.7019 97.9358 15.4527C97.9249 15.2034 97.9181 15.0033 97.9181 14.8535ZM99.3385 5.61743C98.8655 5.61743 98.4688 5.75883 98.1498 6.04162C97.8295 6.3244 97.67 6.62397 97.67 6.9403C97.67 7.18954 97.7763 7.41002 97.989 7.60174C98.203 7.79346 98.4988 7.88932 98.8764 7.88932C99.3507 7.88932 99.7529 7.75152 100.084 7.47712C100.415 7.20272 100.58 6.89836 100.58 6.56525C100.58 6.31602 100.468 6.09553 100.244 5.90381C100.019 5.71329 99.7174 5.61743 99.3385 5.61743Z" fill="#A8A9BA"/>
<path d="M114.567 17.6994C114.803 17.6994 114.992 17.6575 115.136 17.5748C115.277 17.4921 115.407 17.3831 115.525 17.2501C115.715 17.05 115.981 16.73 116.324 16.2891C116.668 15.8481 117.063 15.3533 117.513 14.8033C117.963 14.2545 118.442 13.6853 118.951 13.0934C119.459 12.5026 119.957 11.9658 120.442 11.4841C120.927 11.0012 121.383 10.6058 121.808 10.2978C122.235 9.9899 122.589 9.83652 122.874 9.83652C123.016 9.83652 123.127 9.87725 123.211 9.96113C123.294 10.0438 123.352 10.1397 123.388 10.2475C123.423 10.3566 123.448 10.468 123.459 10.5854C123.471 10.7017 123.476 10.7927 123.476 10.8598C123.476 11.6255 123.423 12.3828 123.317 13.1317C123.211 13.8806 123.157 14.6295 123.157 15.3784C123.157 15.678 123.175 16.0183 123.211 16.4017C123.246 16.784 123.347 17.1506 123.512 17.4993C123.678 17.8492 123.921 18.1404 124.24 18.374C124.56 18.6065 125.015 18.7227 125.607 18.7227C126.222 18.7227 126.891 18.5813 127.612 18.2986C128.335 18.0158 129.045 17.6707 129.743 17.2633C130.441 16.8547 131.079 16.4269 131.659 15.9775C132.239 15.5282 132.706 15.1364 133.062 14.8033C133.133 14.7374 133.209 14.6583 133.292 14.5672C133.375 14.4749 133.416 14.3875 133.416 14.3048C133.416 14.1886 133.386 14.0711 133.328 13.9549C133.268 13.8387 133.133 13.78 132.919 13.78C132.683 13.78 132.469 13.859 132.281 14.0172C132.091 14.1754 131.937 14.3132 131.819 14.4294C131.582 14.6463 131.25 14.9243 130.825 15.2658C130.398 15.6073 129.938 15.9356 129.44 16.2519C128.944 16.5683 128.441 16.8379 127.932 17.0632C127.423 17.2872 126.967 17.3999 126.565 17.3999C126.328 17.3999 126.145 17.3495 126.015 17.2501C125.885 17.1506 125.79 17.0344 125.731 16.9002C125.672 16.7672 125.637 16.6222 125.625 16.464C125.612 16.3059 125.607 16.1681 125.607 16.0518C125.607 15.0873 125.689 14.1262 125.855 13.1688C126.021 12.2114 126.103 11.2505 126.103 10.2859C126.103 10.0522 126.062 9.81495 125.979 9.5741C125.896 9.33325 125.766 9.11157 125.589 8.91266C125.412 8.71255 125.18 8.54601 124.897 8.413C124.613 8.28 124.282 8.21289 123.903 8.21289C123.359 8.21289 122.832 8.33871 122.323 8.58794C121.815 8.83718 121.34 9.13674 120.903 9.48663C120.465 9.83652 120.058 10.202 119.679 10.5854C119.3 10.9677 118.969 11.3008 118.685 11.5836C118.211 12.0665 117.732 12.5446 117.247 13.0191C116.762 13.4936 116.306 13.9801 115.88 14.4797C115.833 14.5289 115.756 14.6163 115.649 14.7409C115.543 14.8668 115.454 14.9291 115.384 14.9291C115.336 14.9291 115.3 14.9039 115.277 14.8536C115.253 14.8033 115.242 14.7709 115.242 14.7541C115.146 14.5037 115.099 14.2461 115.099 13.9801V13.1808C115.099 12.6991 115.111 12.2162 115.136 11.7333C115.159 11.2505 115.171 10.7676 115.171 10.2859C115.171 10.1193 115.153 9.9192 115.118 9.68674C115.081 9.45308 115.01 9.22901 114.904 9.01213C114.797 8.79644 114.65 8.6131 114.461 8.46332C114.271 8.31354 114.011 8.23805 113.68 8.23805C113.207 8.23805 112.686 8.4094 112.118 8.7497C111.549 9.0912 111 9.49501 110.467 9.96113C109.934 10.4272 109.443 10.9018 108.993 11.3835C108.543 11.8663 108.189 12.2414 107.929 12.5074C108.047 12.0245 108.189 11.5416 108.355 11.0587C108.52 10.577 108.733 10.1109 108.993 9.66157C109.089 9.49501 109.207 9.2949 109.349 9.06244C109.491 8.82879 109.633 8.59274 109.774 8.35069C109.916 8.10984 110.035 7.87258 110.13 7.63892C110.224 7.40646 110.272 7.20636 110.272 7.0398C110.272 6.85766 110.212 6.71148 110.095 6.60363C109.976 6.49579 109.787 6.44067 109.526 6.44067C109.029 6.44067 108.508 6.52456 107.964 6.69112C107.42 6.85768 107.018 7.10691 106.758 7.44002C106.616 7.63893 106.437 7.98882 106.225 8.48849C106.012 8.98696 105.8 9.56572 105.586 10.2236C105.373 10.8802 105.16 11.5752 104.948 12.3073C104.734 13.0394 104.551 13.7428 104.397 14.4174C104.243 15.0908 104.113 15.6948 104.006 16.2268C103.899 16.7588 103.846 17.1506 103.846 17.3999C103.846 17.5497 103.906 17.6791 104.023 17.7869C104.142 17.8947 104.319 17.9487 104.556 17.9487C104.888 17.9487 105.153 17.8708 105.355 17.7126C105.557 17.5544 105.716 17.3831 105.835 17.1998C105.952 17.0008 106.177 16.6845 106.508 16.2519C106.84 15.8194 107.231 15.3281 107.681 14.7793C108.13 14.2293 108.609 13.6637 109.117 13.0814C109.627 12.499 110.123 11.9658 110.609 11.4841C111.094 11.0012 111.544 10.6058 111.958 10.2978C112.372 9.9899 112.697 9.83652 112.934 9.83652C113.124 9.83652 113.23 9.90242 113.253 10.0354C113.278 10.1684 113.289 10.2775 113.289 10.3602V12.7063C113.289 13.2563 113.313 13.8219 113.359 14.4042C113.407 14.9866 113.478 15.5234 113.573 16.0147C113.667 16.506 113.798 16.9086 113.963 17.2249C114.13 17.5413 114.33 17.6994 114.567 17.6994Z" fill="#A8A9BA"/>
<path d="M132.812 14.9781C132.812 15.3447 132.872 15.727 132.99 16.1272C133.108 16.5262 133.298 16.8845 133.558 17.1996C133.818 17.516 134.167 17.7784 134.605 17.9869C135.044 18.1942 135.582 18.2984 136.22 18.2984C136.718 18.2984 137.203 18.2361 137.676 18.1115C138.149 17.9869 138.587 17.8323 138.99 17.649C139.676 17.3338 140.255 16.9504 140.729 16.5011C141.202 16.0517 141.592 15.5688 141.9 15.0536C142.208 14.5371 142.433 14.0003 142.575 13.4431C142.717 12.8859 142.788 12.3324 142.788 11.7836C142.788 11.4001 142.735 11.0095 142.628 10.6093C142.522 10.2102 142.343 9.84478 142.095 9.51167C141.847 9.17855 141.509 8.90415 141.084 8.68727C140.657 8.47158 140.113 8.36255 139.451 8.36255C138.386 8.36255 137.446 8.59261 136.629 9.04914C135.813 9.50687 135.12 10.0689 134.552 10.7351C133.985 11.4001 133.553 12.1155 133.257 12.8811C132.961 13.6468 132.812 14.3466 132.812 14.9781ZM139.451 10.0101C139.83 10.0101 140.137 10.0904 140.374 10.2474C140.611 10.4056 140.8 10.5973 140.942 10.8226C141.084 11.0466 141.178 11.2923 141.226 11.5583C141.273 11.8243 141.297 12.0579 141.297 12.2569C141.297 12.6403 141.25 13.0357 141.155 13.4431C141.061 13.8505 140.912 14.246 140.712 14.6294C140.51 15.0116 140.25 15.3735 139.931 15.715C139.61 16.0565 139.226 16.3513 138.776 16.6005C138.54 16.7347 138.285 16.8461 138.013 16.9384C137.742 17.0295 137.451 17.075 137.143 17.075C136.789 17.075 136.493 17.0043 136.256 16.8629C136.02 16.7215 135.836 16.5514 135.706 16.3513C135.576 16.1512 135.487 15.9319 135.439 15.6898C135.393 15.449 135.368 15.2285 135.368 15.0284C135.368 14.6462 135.457 14.1717 135.636 13.6049C135.813 13.0393 136.073 12.4905 136.417 11.9573C136.759 11.4253 137.185 10.9675 137.694 10.5853C138.202 10.2019 138.788 10.0101 139.451 10.0101Z" fill="#A8A9BA"/>
<path d="M145.769 18.7227C146.1 18.7227 146.39 18.6401 146.64 18.4735C146.888 18.3069 147.083 18.1236 147.224 17.9247C147.627 17.292 148.041 16.6725 148.468 16.065C148.893 15.4575 149.366 14.862 149.887 14.2796C150.313 13.7967 150.786 13.2899 151.307 12.7567C151.828 12.2246 152.384 11.7585 152.975 11.3583C153.07 11.2924 153.2 11.2085 153.365 11.1091C153.532 11.0096 153.673 10.9593 153.792 10.9593C153.934 10.9593 154.022 11.0264 154.058 11.1594C154.093 11.2924 154.111 11.3918 154.111 11.459C154.111 11.9418 154.088 12.4152 154.04 12.8813C153.992 13.3474 153.969 13.8219 153.969 14.3048C153.969 14.6211 153.987 14.9698 154.022 15.3533C154.058 15.7355 154.164 16.0938 154.343 16.4269C154.52 16.7588 154.78 17.038 155.122 17.2633C155.466 17.4873 155.946 17.6 156.56 17.6C157.223 17.6 157.903 17.4502 158.602 17.1506C159.3 16.8511 159.963 16.4844 160.59 16.0518C161.217 15.6193 161.773 15.1579 162.258 14.6667C162.744 14.1754 163.116 13.7392 163.376 13.3558C163.424 13.2899 163.477 13.206 163.536 13.1065C163.596 13.0059 163.624 12.9232 163.624 12.8561C163.624 12.7399 163.571 12.6284 163.465 12.5194C163.358 12.4116 163.211 12.3576 163.022 12.3576C162.808 12.3576 162.63 12.4319 162.489 12.5817C162.347 12.7315 162.228 12.8645 162.134 12.9819C161.945 13.2479 161.672 13.5727 161.318 13.9549C160.962 14.3384 160.56 14.7086 160.11 15.0657C159.66 15.424 159.193 15.7319 158.709 15.9895C158.223 16.2472 157.744 16.3766 157.271 16.3766C156.987 16.3766 156.768 16.3262 156.614 16.2268C156.46 16.1273 156.348 16.0015 156.277 15.8517C156.206 15.702 156.164 15.5402 156.153 15.3652C156.141 15.1903 156.135 15.0285 156.135 14.8788C156.135 14.2964 156.158 13.7141 156.206 13.1317C156.252 12.5494 156.277 11.9658 156.277 11.3835C156.277 11.2013 156.265 10.9761 156.242 10.71C156.217 10.444 156.153 10.1768 156.047 9.91082C155.939 9.64481 155.779 9.41954 155.567 9.23741C155.354 9.05407 155.069 8.9618 154.715 8.9618C154.265 8.9618 153.739 9.14513 153.135 9.5118C152.531 9.87726 151.934 10.3026 151.342 10.7843C150.751 11.2672 150.2 11.7585 149.692 12.257C149.183 12.7567 148.799 13.1401 148.539 13.4061C148.633 12.9232 148.751 12.4403 148.893 11.9574C149.035 11.4757 149.236 11.0012 149.497 10.5351C149.709 10.1361 149.917 9.69872 150.118 9.22421C150.319 8.74971 150.42 8.29677 150.42 7.8642C150.42 7.59819 150.343 7.3897 150.189 7.23992C150.035 7.09014 149.757 7.01465 149.355 7.01465C148.905 7.01465 148.473 7.14047 148.059 7.3897C147.644 7.63894 147.391 7.91334 147.295 8.2129C147.177 8.59634 147.07 8.98697 146.976 9.38719C146.881 9.7862 146.775 10.1768 146.657 10.5603C146.302 11.7585 145.94 13.0059 145.574 14.3048C145.207 15.6025 145.024 16.8679 145.024 18.0985C145.024 18.265 145.083 18.4112 145.202 18.5358C145.32 18.6604 145.51 18.7227 145.769 18.7227Z" fill="#A8A9BA"/>
</svg>
