<svg xmlns="http://www.w3.org/2000/svg" width="91.629" height="26.51" viewBox="0 0 91.629 26.51">
  <g id="Group_19" data-name="Group 19" transform="translate(-80.04 -2160.619)">
    <path id="Path_50" data-name="Path 50" d="M147.509,2172.421h0Z" fill="#fff"/>
    <path id="Path_51" data-name="Path 51" d="M148.422,2160.619H146.6a1.489,1.489,0,0,0-1.508,1.565v1.71a1.488,1.488,0,0,0,1.508,1.564h1.823a1.488,1.488,0,0,0,1.507-1.564v-1.71A1.49,1.49,0,0,0,148.422,2160.619Z" fill="#fff"/>
    <path id="Path_52" data-name="Path 52" d="M148.422,2166.725H146.6a1.489,1.489,0,0,0-1.508,1.564v12.527c0,1.279-.934,1.416-1.482,1.473h-5.523a3.967,3.967,0,0,1-2.335-.593l-.13-.109c-.046-.041-.071-.066-.071-.066l-5.346-4.334a.922.922,0,0,1-.133-1.528c.2-.176,3.065-2.476,4.26-3.452a2.677,2.677,0,0,1,1.786-.647h6.168a1.49,1.49,0,0,0,1.564-1.508v-1.823a1.491,1.491,0,0,0-1.564-1.509h-7.211a5.1,5.1,0,0,0-2.9.993l-5.908,4.85a1.382,1.382,0,0,1-1.755.005l-5.892-4.782a4.813,4.813,0,0,0-2.947-1.066H99.017a.676.676,0,0,0-.517,1.139l2.182,2.732a2.52,2.52,0,0,0,1.689.969h11.8a3.466,3.466,0,0,1,2.366.736c1.235,1.032,3.48,2.8,4.025,3.269a.956.956,0,0,1-.024,1.637l-5.412,4.394a4.887,4.887,0,0,1-2.6.693h-2.463a2.863,2.863,0,0,1-2.18-.92c-.018-.017-11.125-13.65-11.125-13.65-.931-1.247-2.193-1.247-3.164.074l-13.151,16.382c-.99,1.55,0,2.933,1.323,2.933l20.9.011a.737.737,0,0,0,.54-1.221l-2.179-2.792a1.96,1.96,0,0,0-1.512-.817h-9a.835.835,0,0,1-.749-1.367l4.547-5.739a1.142,1.142,0,0,1,1.926.044s8.267,10.236,8.3,10.275c1.124,1.161,1.9,1.626,3,1.626h6.742a5.419,5.419,0,0,0,3.4-1.4l6.824-5.523a1.388,1.388,0,0,1,1.868.046h0l6.53,5.338a5.247,5.247,0,0,0,3.575,1.537h10.475a3.324,3.324,0,0,0,2.982-3.1v-15.735A1.489,1.489,0,0,0,148.422,2166.725Zm-.913,5.7h0Z" fill="#fff"/>
    <path id="Path_53" data-name="Path 53" d="M171.669,2174.9V2170a3.337,3.337,0,0,0-3-3.319c-.114-.011-.23-.018-.347-.018h-13.8a3.335,3.335,0,0,0-3.335,3.334v13.8a3.333,3.333,0,0,0,3,3.317,3.074,3.074,0,0,0,.346.019h13.8a3.335,3.335,0,0,0,3.335-3.335S171.666,2174.9,171.669,2174.9Zm-4.866,5.664c0,.059,0,.116-.008.173a1.757,1.757,0,0,1-1.74,1.523h-7.268a1.756,1.756,0,0,1-1.756-1.757v-7.268c0-.059,0-.117.008-.175a1.757,1.757,0,0,1,1.739-1.522h7.269a1.756,1.756,0,0,1,1.756,1.757Z" fill="#fff"/>
  </g>
</svg>
