<svg xmlns="http://www.w3.org/2000/svg" width="425" height="154.803" viewBox="0 0 425 154.803">
  <g id="Group_606" data-name="Group 606" transform="translate(827 1307)">
    <g id="Group_211" data-name="Group 211" transform="translate(-826.857 -1178.207)">
      <g id="Group_204" data-name="Group 204" transform="translate(0 0.27)">
        <path id="Path_438" data-name="Path 438" d="M-635.261,308.385a9.122,9.122,0,0,1-1.554-2.744,9.733,9.733,0,0,1-.568-3.35V298.5a9.779,9.779,0,0,1,.568-3.336,9.032,9.032,0,0,1,1.542-2.744,7.386,7.386,0,0,1,2.286-1.85,6.009,6.009,0,0,1,2.805-.682h14.757v2.3h-14.757a4.36,4.36,0,0,0-2.047.5,5.45,5.45,0,0,0-1.68,1.364,6.694,6.694,0,0,0-1.137,2,7.053,7.053,0,0,0-.416,2.442v3.79a7.083,7.083,0,0,0,.416,2.425,6.781,6.781,0,0,0,1.125,2.017,5.357,5.357,0,0,0,1.655,1.364,4.29,4.29,0,0,0,2.034.5h14.807V310.9h-14.757a6,6,0,0,1-2.805-.683A7.335,7.335,0,0,1-635.261,308.385Z" transform="translate(639.64 -287.632)" fill="#f93822"/>
        <path id="Path_439" data-name="Path 439" d="M-613.411,312.917h-17.014a8.254,8.254,0,0,1-3.846-.937,9.6,9.6,0,0,1-2.968-2.393,11.418,11.418,0,0,1-1.94-3.417,12.015,12.015,0,0,1-.7-4.122v-3.79a12.057,12.057,0,0,1,.7-4.1,11.3,11.3,0,0,1,1.932-3.424,9.652,9.652,0,0,1,2.98-2.408,8.262,8.262,0,0,1,3.845-.936h17.014v6.818h-17.014a2.127,2.127,0,0,0-1,.245,3.2,3.2,0,0,0-.989.808,4.409,4.409,0,0,0-.753,1.334,4.758,4.758,0,0,0-.278,1.663v3.79a4.794,4.794,0,0,0,.282,1.658,4.6,4.6,0,0,0,.748,1.354,3.087,3.087,0,0,0,.963.8,2.057,2.057,0,0,0,.979.238h17.064Z" transform="translate(639.883 -287.389)" fill="#f93822"/>
      </g>
      <g id="Group_205" data-name="Group 205" transform="translate(38.331 0.27)">
        <path id="Path_440" data-name="Path 440" d="M-587.752,310.9a5.921,5.921,0,0,1-2.792-.683,7.425,7.425,0,0,1-2.274-1.85,9.038,9.038,0,0,1-1.541-2.729,9.706,9.706,0,0,1-.569-3.35V298.5a9.752,9.752,0,0,1,.569-3.336,9.037,9.037,0,0,1,1.541-2.744,7.451,7.451,0,0,1,2.274-1.85,5.932,5.932,0,0,1,2.792-.682h12.988a6.009,6.009,0,0,1,2.805.682,7.41,7.41,0,0,1,2.287,1.85,9.053,9.053,0,0,1,1.541,2.744,9.781,9.781,0,0,1,.568,3.336v3.79a9.734,9.734,0,0,1-.568,3.35,9.055,9.055,0,0,1-1.541,2.729,7.385,7.385,0,0,1-2.287,1.85,6,6,0,0,1-2.805.683Zm-5.256-12.4v3.79a7.028,7.028,0,0,0,.417,2.44,6.708,6.708,0,0,0,1.137,2,5.514,5.514,0,0,0,1.668,1.364,4.291,4.291,0,0,0,2.033.5h12.988a4.368,4.368,0,0,0,2.047-.5,5.451,5.451,0,0,0,1.68-1.364,6.69,6.69,0,0,0,1.138-2,7.029,7.029,0,0,0,.416-2.44V298.5a7.039,7.039,0,0,0-.416-2.442,6.7,6.7,0,0,0-1.138-2,5.437,5.437,0,0,0-1.68-1.364,4.359,4.359,0,0,0-2.047-.5h-12.988a4.282,4.282,0,0,0-2.033.5,5.5,5.5,0,0,0-1.668,1.364,6.715,6.715,0,0,0-1.137,2A7.038,7.038,0,0,0-593.008,298.5Z" transform="translate(597.185 -287.632)" fill="#f93822"/>
        <path id="Path_441" data-name="Path 441" d="M-575.007,312.917h-12.988a8.185,8.185,0,0,1-3.84-.941,9.7,9.7,0,0,1-2.961-2.4,11.332,11.332,0,0,1-1.928-3.4,11.983,11.983,0,0,1-.705-4.122v-3.79a12.051,12.051,0,0,1,.7-4.1,11.3,11.3,0,0,1,1.931-3.424,9.69,9.69,0,0,1,2.96-2.4,8.182,8.182,0,0,1,3.84-.941h12.988a8.274,8.274,0,0,1,3.845.935,9.677,9.677,0,0,1,2.981,2.409,11.339,11.339,0,0,1,1.931,3.423,12.067,12.067,0,0,1,.7,4.1v3.79a12.013,12.013,0,0,1-.7,4.122,11.356,11.356,0,0,1-1.929,3.4,9.647,9.647,0,0,1-2.981,2.408A8.258,8.258,0,0,1-575.007,312.917Zm-12.988-18.709a2.042,2.042,0,0,0-.979.239,3.232,3.232,0,0,0-.989.813,4.437,4.437,0,0,0-.753,1.334,4.764,4.764,0,0,0-.278,1.663v3.79a4.748,4.748,0,0,0,.279,1.664,4.423,4.423,0,0,0,.752,1.334,3.255,3.255,0,0,0,.989.813,2.052,2.052,0,0,0,.979.238h12.988a2.118,2.118,0,0,0,1.006-.246,3.183,3.183,0,0,0,.987-.806,4.4,4.4,0,0,0,.752-1.334,4.761,4.761,0,0,0,.279-1.664v-3.79a4.754,4.754,0,0,0-.279-1.664,4.39,4.39,0,0,0-.752-1.334,3.178,3.178,0,0,0-.988-.807,2.12,2.12,0,0,0-1-.245Z" transform="translate(597.428 -287.389)" fill="#f93822"/>
      </g>
      <g id="Group_206" data-name="Group 206" transform="translate(82.07)">
        <path id="Path_442" data-name="Path 442" d="M-528.518,310.691a2.806,2.806,0,0,1-.594-.395,4.047,4.047,0,0,1-.594-.728l-12.053-17.041a1.3,1.3,0,0,0-.531-.469,1.581,1.581,0,0,0-.657-.136,1.658,1.658,0,0,0-1.086.424,1.561,1.561,0,0,0-.531,1.212v17.315h-1.921V293.347l.025-.091a4.03,4.03,0,0,1,.379-1.53,4.121,4.121,0,0,1,.821-1.168,3.3,3.3,0,0,1,1.112-.729,3.4,3.4,0,0,1,1.25-.242,3.152,3.152,0,0,1,1.427.348,3.087,3.087,0,0,1,1.2,1.137l12.053,17.041a1.377,1.377,0,0,0,.543.486,1.472,1.472,0,0,0,.644.151,1.54,1.54,0,0,0,1.062-.439,1.744,1.744,0,0,0,.531-1.228V289.8h1.946v17.5a4.557,4.557,0,0,1-.4,1.547,4.319,4.319,0,0,1-.821,1.2,3.621,3.621,0,0,1-1.1.773,2.983,2.983,0,0,1-1.238.274A2.877,2.877,0,0,1-528.518,310.691Z" transform="translate(548.741 -287.333)" fill="#f93822"/>
        <path id="Path_443" data-name="Path 443" d="M-527.3,313.1a5.122,5.122,0,0,1-2.545-.669,5.091,5.091,0,0,1-1.015-.69,6.072,6.072,0,0,1-.957-1.141l-10.737-15.181v17.469h-6.435V292.8l.05-.179a6.225,6.225,0,0,1,.579-2.117,6.382,6.382,0,0,1,1.27-1.795,5.549,5.549,0,0,1,1.872-1.222,5.492,5.492,0,0,1,4.514.19,5.312,5.312,0,0,1,2.058,1.89l10.706,15.136V287.3h6.46l-.009,19.954a6.819,6.819,0,0,1-.611,2.308,6.566,6.566,0,0,1-1.254,1.818,5.881,5.881,0,0,1-1.783,1.249A5.24,5.24,0,0,1-527.3,313.1Zm.675-6.539,0,.006Zm-17.225-12.972.005.007Z" transform="translate(548.984 -287.09)" fill="#f93822"/>
      </g>
      <g id="Group_207" data-name="Group 207" transform="translate(122.322)">
        <path id="Path_444" data-name="Path 444" d="M-483.936,310.691a2.8,2.8,0,0,1-.594-.395,4.052,4.052,0,0,1-.594-.728l-12.052-17.041a1.294,1.294,0,0,0-.531-.469,1.581,1.581,0,0,0-.657-.136,1.659,1.659,0,0,0-1.086.424,1.565,1.565,0,0,0-.531,1.212v17.315h-1.92V293.347l.025-.091a4.029,4.029,0,0,1,.379-1.53,4.119,4.119,0,0,1,.821-1.168,3.3,3.3,0,0,1,1.112-.729,3.4,3.4,0,0,1,1.25-.242,3.153,3.153,0,0,1,1.427.348,3.088,3.088,0,0,1,1.2,1.137l12.053,17.041a1.381,1.381,0,0,0,.544.486,1.472,1.472,0,0,0,.645.151,1.539,1.539,0,0,0,1.061-.439,1.745,1.745,0,0,0,.531-1.228V289.8h1.946v17.5a4.57,4.57,0,0,1-.4,1.547,4.316,4.316,0,0,1-.821,1.2,3.617,3.617,0,0,1-1.1.773,2.984,2.984,0,0,1-1.238.274A2.877,2.877,0,0,1-483.936,310.691Z" transform="translate(504.159 -287.333)" fill="#f93822"/>
        <path id="Path_445" data-name="Path 445" d="M-482.713,313.1a5.122,5.122,0,0,1-2.545-.669,5.09,5.09,0,0,1-1.015-.69,6.075,6.075,0,0,1-.957-1.141l-10.737-15.181v17.469H-504.4V292.8l.05-.179a6.226,6.226,0,0,1,.579-2.117,6.386,6.386,0,0,1,1.27-1.795,5.551,5.551,0,0,1,1.872-1.222,5.491,5.491,0,0,1,4.514.19,5.31,5.31,0,0,1,2.058,1.89l10.706,15.136V287.3h6.46l-.009,19.954a6.817,6.817,0,0,1-.611,2.308,6.565,6.565,0,0,1-1.254,1.818,5.882,5.882,0,0,1-1.783,1.249A5.24,5.24,0,0,1-482.713,313.1Zm.675-6.539,0,.006Zm-17.224-12.972,0,.007Z" transform="translate(504.402 -287.09)" fill="#f93822"/>
      </g>
      <g id="Group_208" data-name="Group 208" transform="translate(162.575 0.27)">
        <path id="Path_446" data-name="Path 446" d="M-453.857,294.043A6.549,6.549,0,0,0-455,296.059a7.251,7.251,0,0,0-.4,2.442v.758h20.037v2.3H-455.4v.788a6.943,6.943,0,0,0,.416,2.411,6.473,6.473,0,0,0,1.138,1.985,5.548,5.548,0,0,0,1.68,1.35,4.318,4.318,0,0,0,2.021.5h14.783V310.9h-14.783a5.921,5.921,0,0,1-2.792-.683,7.327,7.327,0,0,1-2.273-1.864,9.261,9.261,0,0,1-1.542-2.745,9.645,9.645,0,0,1-.568-3.32V298.5a9.737,9.737,0,0,1,.568-3.351,8.943,8.943,0,0,1,1.554-2.729,7.6,7.6,0,0,1,2.287-1.85,5.881,5.881,0,0,1,2.766-.682h14.783v2.3h-14.783a4.4,4.4,0,0,0-2.033.486A5.355,5.355,0,0,0-453.857,294.043Z" transform="translate(459.576 -287.632)" fill="#f93822"/>
        <path id="Path_447" data-name="Path 447" d="M-433.347,312.917h-17.04a8.189,8.189,0,0,1-3.84-.941,9.625,9.625,0,0,1-2.97-2.43,11.566,11.566,0,0,1-1.919-3.406,11.93,11.93,0,0,1-.7-4.093v-3.79a12.039,12.039,0,0,1,.7-4.123,11.2,11.2,0,0,1,1.951-3.413,9.863,9.863,0,0,1,2.963-2.393,8.133,8.133,0,0,1,3.815-.941h17.04v6.818h-17.04a2.147,2.147,0,0,0-1.006.238,3.094,3.094,0,0,0-.973.8h0a4.269,4.269,0,0,0-.744,1.327c-.022.06-.042.123-.061.186h19.825v6.818h-19.816q.027.083.057.165a4.219,4.219,0,0,0,.739,1.3,3.283,3.283,0,0,0,1,.808,2.066,2.066,0,0,0,.978.245h17.04Z" transform="translate(459.819 -287.389)" fill="#f93822"/>
      </g>
      <g id="Group_209" data-name="Group 209" transform="translate(201.613 0.27)">
        <path id="Path_448" data-name="Path 448" d="M-411.958,308.385a9.124,9.124,0,0,1-1.554-2.744,9.711,9.711,0,0,1-.568-3.35V298.5a9.757,9.757,0,0,1,.568-3.336,9.053,9.053,0,0,1,1.541-2.744,7.391,7.391,0,0,1,2.287-1.85,6.009,6.009,0,0,1,2.805-.682h14.757v2.3h-14.757a4.364,4.364,0,0,0-2.048.5,5.461,5.461,0,0,0-1.68,1.364,6.714,6.714,0,0,0-1.137,2,7.036,7.036,0,0,0-.417,2.442v3.79a7.067,7.067,0,0,0,.417,2.425,6.808,6.808,0,0,0,1.124,2.017,5.36,5.36,0,0,0,1.655,1.364,4.3,4.3,0,0,0,2.034.5h14.808V310.9h-14.757a6,6,0,0,1-2.805-.683A7.328,7.328,0,0,1-411.958,308.385Z" transform="translate(416.338 -287.632)" fill="#f93822"/>
        <path id="Path_449" data-name="Path 449" d="M-390.108,312.917h-17.014a8.266,8.266,0,0,1-3.845-.936,9.605,9.605,0,0,1-2.969-2.393,11.374,11.374,0,0,1-1.94-3.417,12.012,12.012,0,0,1-.705-4.122v-3.79a12.059,12.059,0,0,1,.7-4.1,11.3,11.3,0,0,1,1.931-3.424,9.654,9.654,0,0,1,2.98-2.408,8.268,8.268,0,0,1,3.845-.936h17.014v6.818h-17.014a2.127,2.127,0,0,0-1,.245,3.2,3.2,0,0,0-.99.809,4.438,4.438,0,0,0-.752,1.334,4.759,4.759,0,0,0-.278,1.663v3.79a4.776,4.776,0,0,0,.283,1.658,4.586,4.586,0,0,0,.748,1.354,3.08,3.08,0,0,0,.962.8,2.024,2.024,0,0,0,.98.239h17.065Z" transform="translate(416.581 -287.389)" fill="#f93822"/>
      </g>
      <g id="Group_210" data-name="Group 210" transform="translate(238.759 0.27)">
        <path id="Path_450" data-name="Path 450" d="M-351.059,292.193h-9.98V310.9h-1.92V292.193h-9.98v-2.3h21.881Z" transform="translate(375.197 -287.632)" fill="#f93822"/>
        <path id="Path_451" data-name="Path 451" d="M-359.025,312.917h-6.435V294.208h-9.98v-6.819h26.4v6.819h-9.981Z" transform="translate(375.44 -287.389)" fill="#f93822"/>
      </g>
    </g>
    <g id="Group_216" data-name="Group 216" transform="translate(-827 -1307)">
      <g id="Group_212" data-name="Group 212" transform="translate(247.66 17.764)">
        <path id="Path_452" data-name="Path 452" d="M-353.058,164.117H-360a5.67,5.67,0,0,0-5.741,5.954v6.514A5.67,5.67,0,0,0-360,182.538h6.94a5.67,5.67,0,0,0,5.741-5.954v-6.514A5.67,5.67,0,0,0-353.058,164.117Z" transform="translate(365.739 -164.117)"/>
      </g>
      <g id="Group_213" data-name="Group 213" transform="translate(0 40.989)">
        <path id="Path_453" data-name="Path 453" d="M-379.7,189.86h-6.94a5.67,5.67,0,0,0-5.74,5.954v47.693c0,4.867-3.555,5.39-5.639,5.607h-21.025c-4.46,0-7.536-1.182-8.891-2.255l-.5-.418c-.172-.153-.268-.254-.268-.254l-20.356-16.5c-2.654-2.088-2.025-4.436-.5-5.815.743-.672,11.665-9.426,16.214-13.14a10.205,10.205,0,0,1,6.8-2.468h23.484a5.67,5.67,0,0,0,5.954-5.74v-6.941a5.67,5.67,0,0,0-5.954-5.74h-27.453a19.413,19.413,0,0,0-11.034,3.779l-22.485,18.465a5.279,5.279,0,0,1-6.69.02L-493.152,193.9a18.319,18.319,0,0,0-11.219-4.057h-63.423a2.574,2.574,0,0,0-1.966,4.336l8.308,10.4c2.062,2.31,4.465,3.686,6.429,3.686h44.937a13.2,13.2,0,0,1,9.008,2.8c4.7,3.928,13.253,10.657,15.327,12.446s2.51,3.977-.092,6.233l-20.606,16.729a18.607,18.607,0,0,1-9.914,2.638h-9.378c-3-.2-5.409-.544-8.3-3.5-.065-.066-42.355-51.967-42.355-51.967-3.545-4.75-8.351-4.75-12.046.279L-638.509,256.3c-3.773,5.9,0,11.167,5.037,11.167l79.563.041a2.806,2.806,0,0,0,2.054-4.649l-8.292-10.631c-1.4-1.566-3.032-3.11-5.756-3.11h-34.278c-3.616,0-4.322-3.222-2.855-5.2l17.313-21.85c2.178-3.127,5.715-2.053,7.334.165,0,0,31.474,38.974,31.614,39.121,4.279,4.422,7.216,6.189,11.421,6.189h25.664c5.04,0,9.633-2.519,12.933-5.323l25.98-21.025c1.969-1.568,4.322-1.919,7.108.18v0l24.863,20.325c4.681,4.151,9.044,5.849,13.609,5.849h39.88c5.75,0,11.356-6.207,11.356-11.814V195.814A5.671,5.671,0,0,0-379.7,189.86Zm-3.473,21.683h0Z" transform="translate(640.041 -189.841)"/>
      </g>
      <g id="Group_215" data-name="Group 215" transform="translate(270.889 0)">
        <g id="Group_214" data-name="Group 214">
          <path id="Path_454" data-name="Path 454" d="M-195.552,144.442h-39.936a9.65,9.65,0,0,0-9.649,9.651v39.936a9.651,9.651,0,0,0,9.649,9.651h4.121c.134.007.264.029.4.029H-220.9v8.054c-.037,6.542-3.67,6.975-7.085,6.968h-16.624c-.612-.008-1.17-.007-1.646,0h-3.93q-1.376-.007-2.764,0h-9.134V216.6a.51.51,0,0,0,.033-.045V197.9a12.7,12.7,0,0,0-11.409-12.632,12.772,12.772,0,0,0-1.321-.069h-52.536a12.7,12.7,0,0,0-12.694,12.7v52.536A12.7,12.7,0,0,0-328.6,263.062a12.756,12.756,0,0,0,1.32.069h52.536a12.7,12.7,0,0,0,12.7-12.7v-18.8a.581.581,0,0,0-.033-.048V229.6h17.474c3.414-.007,7.049.424,7.084,6.967v15.961h-10.063a7.491,7.491,0,0,0-7.491,7.491v31a7.491,7.491,0,0,0,7.491,7.49h31a7.493,7.493,0,0,0,7.492-7.49v-31a7.492,7.492,0,0,0-7.492-7.491h-10.063v-16.95h-.01a24.52,24.52,0,0,0-.8-5.98l.4,0c0-.018,0-.036-.006-.054.322-.015.643-.034.959-.059.012.019.024.037.034.056a21.824,21.824,0,0,0,2.763-.287c5.2-.757,9.327-3.238,11.622-8.2a20.77,20.77,0,0,0,1.641-8.308h.011v-9.043h10.064c.18,0,.355-.016.531-.029h3.888a9.652,9.652,0,0,0,9.652-9.651V154.093A9.651,9.651,0,0,0-195.552,144.442Zm-85.023,93.675c0,.224-.011.444-.032.663a6.687,6.687,0,0,1-6.623,5.8H-314.9a6.689,6.689,0,0,1-6.688-6.688V210.214c0-.224.013-.445.034-.664a6.683,6.683,0,0,1,6.62-5.8h27.673a6.688,6.688,0,0,1,6.687,6.688Zm56.616,25.364a3.946,3.946,0,0,1,3.946,3.946v16.327a3.945,3.945,0,0,1-3.946,3.946h-16.327a3.945,3.945,0,0,1-3.945-3.946V267.427a3.945,3.945,0,0,1,3.945-3.946Zm24-78.814a5.084,5.084,0,0,1-5.083,5.085h-21.036a5.085,5.085,0,0,1-5.085-5.085V163.632a5.085,5.085,0,0,1,5.085-5.084h21.036a5.084,5.084,0,0,1,5.083,5.084Z" transform="translate(340.012 -144.442)"/>
        </g>
      </g>
    </g>
  </g>
</svg>
