<svg id="Layer_1" data-name="Layer 1" xmlns="http://www.w3.org/2000/svg" xmlns:xlink="http://www.w3.org/1999/xlink" viewBox="0 0 165.97 48.29"><defs><style>.cls-1{fill:#fff;}.cls-1,.cls-2{fill-rule:evenodd;}.cls-2{fill:#f6f6fe;}.cls-3{mask:url(#mask);}</style><mask id="mask" x="72.01" y="0" width="93.96" height="48.29" maskUnits="userSpaceOnUse"><g transform="translate(0 -0.03)"><g id="b"><path id="a" class="cls-1" d="M72,0h94V48.32H72Z"/></g></g></mask></defs><title>logo-light</title><path class="cls-2" d="M0,14.13v.12L28,27.38,56,14.21v0L28,1Zm10.08.06L28,5.8l17.88,8.39L28,22.59l-17.87-8.4ZM28,32.48,0,19.55v4.78l28,13L56,24.29V19.5Zm0,9.71L0,29.25V34L28,47,56,34V29.21Z" transform="translate(0 -0.03)"/><g class="cls-3"><path class="cls-2" d="M159.56,24.15a8.1,8.1,0,0,0-2.16-5.57,7.17,7.17,0,0,0-2.34-1.67,6.69,6.69,0,0,0-2.85-.6,6.87,6.87,0,0,0-2.85.6A7.06,7.06,0,0,0,147,18.58a8.27,8.27,0,0,0,0,11.15,7.36,7.36,0,0,0,2.34,1.67,7.07,7.07,0,0,0,5.7,0,7.48,7.48,0,0,0,2.34-1.67,8.12,8.12,0,0,0,2.16-5.58Zm6.41,0a13.32,13.32,0,0,1-1.07,5.38A13.09,13.09,0,0,1,162,33.81a14,14,0,0,1-4.38,2.85,13.82,13.82,0,0,1-5.37,1.05,13.65,13.65,0,0,1-5.35-1.05,13.8,13.8,0,0,1-4.36-2.88,13.34,13.34,0,0,1-4-9.63,12.9,12.9,0,0,1,1.09-5.28,13.84,13.84,0,0,1,3-4.33,13.59,13.59,0,0,1,4.37-2.89,13.4,13.4,0,0,1,5.3-1.05A14,14,0,0,1,162,14.5a13,13,0,0,1,2.94,4.3A13.35,13.35,0,0,1,166,24.15ZM136.26,36.9a8.74,8.74,0,0,1-1.72.59,9.17,9.17,0,0,1-2,.22,10.12,10.12,0,0,1-2.74-.38,6.06,6.06,0,0,1-2.29-1.23A5.74,5.74,0,0,1,126,33.89a8.24,8.24,0,0,1-.58-3.27V0h6.55V29.5a3,3,0,0,0,.64,2.21,2.19,2.19,0,0,0,1.54.6,3.83,3.83,0,0,0,2.14-.67ZM122.49,11.22,110.91,41.85a10.4,10.4,0,0,1-3.39,4.95,8.28,8.28,0,0,1-5,1.52,8.27,8.27,0,0,1-2-.27l-2.14-6a8.5,8.5,0,0,0,1.56.55,5.92,5.92,0,0,0,1.51.2,5.6,5.6,0,0,0,2.76-.69,4.45,4.45,0,0,0,1.92-2.56L107,37,97.1,11.22h7L110,27.81l5.57-16.59ZM95.54,7.34H78.79v8.3H95.31v5.61H78.78V37H72V1.41H95.54V7.34Z" transform="translate(0 -0.03)"/></g></svg>